<?xml version="1.0" encoding="UTF-8"?>
<!DOCTYPE svg PUBLIC "-//W3C//DTD SVG 1.1//EN" "http://www.w3.org/Graphics/SVG/1.1/DTD/svg11.dtd">
<svg xmlns="http://www.w3.org/2000/svg" version="1.1" width="151px" height="28px" style="shape-rendering:geometricPrecision; text-rendering:geometricPrecision; image-rendering:optimizeQuality; fill-rule:evenodd; clip-rule:evenodd" xmlns:xlink="http://www.w3.org/1999/xlink">
<g><path style="opacity:0.852" fill="#ff641b" d="M -0.5,-0.5 C 8.83333,-0.5 18.1667,-0.5 27.5,-0.5C 27.5,8.83333 27.5,18.1667 27.5,27.5C 18.1667,27.5 8.83333,27.5 -0.5,27.5C -0.5,18.1667 -0.5,8.83333 -0.5,-0.5 Z M 2.5,2.5 C 9.83333,2.5 17.1667,2.5 24.5,2.5C 24.5,9.83333 24.5,17.1667 24.5,24.5C 17.1667,24.5 9.83333,24.5 2.5,24.5C 2.5,17.1667 2.5,9.83333 2.5,2.5 Z"/></g>
<g><path style="opacity:0.11" fill="#363636" d="M 60.5,-0.5 C 60.8333,-0.5 61.1667,-0.5 61.5,-0.5C 62.463,0.3635 62.463,1.03017 61.5,1.5C 60.7025,1.04311 60.3691,0.376442 60.5,-0.5 Z"/></g>
<g><path style="opacity:0.008" fill="#363736" d="M 122.5,1.5 C 122.897,0.474981 123.563,0.308314 124.5,1C 123.906,1.46434 123.239,1.63101 122.5,1.5 Z"/></g>
<g><path style="opacity:0.768" fill="#ff651c" d="M 5.5,7.5 C 9.00243,8.65557 12.0024,10.6556 14.5,13.5C 12.0024,16.3444 9.00243,18.3444 5.5,19.5C 5.58499,17.0712 6.58499,15.0712 8.5,13.5C 6.58499,11.9288 5.58499,9.92878 5.5,7.5 Z"/></g>
<g><path style="opacity:0.024" fill="#303030" d="M 70.5,8.5 C 73.0872,9.30737 73.5872,10.6407 72,12.5C 71.2086,11.255 70.7086,9.92167 70.5,8.5 Z"/></g>
<g><path style="opacity:0.709" fill="#ff651c" d="M 13.5,16.5 C 16.1667,16.5 18.8333,16.5 21.5,16.5C 21.5,17.5 21.5,18.5 21.5,19.5C 18.8333,19.5 16.1667,19.5 13.5,19.5C 13.5,18.5 13.5,17.5 13.5,16.5 Z"/></g>
</svg>
